<?xml version="1.0"?>
<svg version="1.1" xmlns="http://www.w3.org/2000/svg" width="400px" height="120px" style=""><path fill="#090a0a" d="M58.788,81.896q-4.08,0-6.868-1.87t-2.788-4.726q0-3.604,4.692-7.208q0.816-0.612,1.224-0.612t0.408,0.272q0,0.68-1.088,1.088q-3.808,3.06-3.808,6.188q0,2.244,2.04,3.774t5.1,1.53q6.664,0,12.58-6.392q3.06-3.332,3.06-7.684t-3.264-6.46q-2.72-1.904-7.344-1.904q-6.664,0-13.396,3.332q-8.296,4.012-14.994,12.478t-6.698,16.286q0,6.188,4.216,9.554t10.472,3.366q7.14,0,14.008-3.468q5.236-2.72,9.044-6.936q1.088-1.224,1.7-1.224q0.408,0,0.408,0.714t-0.748,1.462q-3.604,3.808-10.404,7.344q-8.364,4.42-16.83,4.42t-12.614-5.576q-2.788-3.672-2.788-8.772q0-2.244,0.544-4.828q1.836-8.704,9.656-16.932q5.644-5.916,13.396-9.214t14.688-3.298q3.672,0,6.392,0.884q7.412,2.312,7.412,9.316q0,4.284-2.516,7.412q-6.256,7.684-14.892,7.684z M96.94756,80.468l0.952-0.204q0.748,0,1.428,0.612t0.68,0.952t-4.216,6.562t-4.216,8.67q0,0.204,0.068,0.408q0.34,1.564,1.496,1.564q3.536,0,12.92-11.696q0.204-0.272,0.476-0.272t0.272,0.51t-0.612,1.326q-8.704,11.628-13.26,11.628q-0.612,0-1.156-0.204q-2.992-1.156-2.992-4.488q0-1.156,0.272-2.312l-4.216,4.08q-4.012,3.536-5.814,3.536t-3.434-1.156q-1.836-1.36-1.836-3.604q0-4.964,6.936-11.866t12.716-6.902q2.244,0,2.992,1.564q0.204,0.544,0.34,0.918t0.204,0.374z M76.61556,97.196q0,2.448,1.7,2.448q3.944,0,10.744-8.636l7.208-9.928q-0.544-0.952-1.768-0.952q-4.148,0-11.016,6.426t-6.868,10.642z M119.26312,101.14q-5.1,0-5.1-5.644q0-2.856,1.496-6.256t3.264-5.712q-0.34,0.068-0.884,0.068q-1.632,0-2.72-2.312l-5.032,6.528q-4.216,5.236-4.896,5.236q-0.34,0-0.34-0.272q0-0.68,1.156-1.972q5.916-6.868,8.364-11.628q1.564-5.916,3.944-5.916q1.564,0,1.564,1.36t-1.7,3.468l-1.632,2.176q0,1.428,2.108,1.428q1.224,0,2.72-0.884l1.768-1.088q0.136-0.068,0.68-0.068t1.156,0.68t0.408,1.224l-4.692,5.916q-4.352,5.576-4.352,8.806t2.992,3.23q3.128,0,7.684-3.332q2.72-1.972,4.964-4.42q2.108-2.448,2.312-2.448q0.476,0,0.476,0.51t-0.612,1.19l-2.176,2.448q-1.836,1.904-4.08,3.672q-5.372,4.012-8.84,4.012z M157.76268,80.468l0.952-0.204q0.748,0,1.428,0.612t0.68,0.952t-4.216,6.562t-4.216,8.67q0,0.204,0.068,0.408q0.34,1.564,1.496,1.564q3.536,0,12.92-11.696q0.204-0.272,0.476-0.272t0.272,0.51t-0.612,1.326q-8.704,11.628-13.26,11.628q-0.612,0-1.156-0.204q-2.992-1.156-2.992-4.488q0-1.156,0.272-2.312l-4.216,4.08q-4.012,3.536-5.814,3.536t-3.434-1.156q-1.836-1.36-1.836-3.604q0-4.964,6.936-11.866t12.716-6.902q2.244,0,2.992,1.564q0.204,0.544,0.34,0.918t0.204,0.374z M137.43068,97.196q0,2.448,1.7,2.448q3.944,0,10.744-8.636l7.208-9.928q-0.544-0.952-1.768-0.952q-4.148,0-11.016,6.426t-6.868,10.642z"/><path fill="#" d=""/></svg>
